<svg width="144" height="46" viewBox="0 0 144 46" fill="none" xmlns="http://www.w3.org/2000/svg">
<g clip-path="url(#clip0_3314_5546)">
<path d="M24.0426 38.3913L5.46602 21.0127C4.84547 20.4964 4.05046 20.2359 3.24355 20.2843C2.43663 20.3327 1.67875 20.6865 1.12484 21.2732C0.570933 21.86 0.262841 22.6355 0.263551 23.4411C0.264261 24.2467 0.573719 25.0216 1.12866 25.6074L21.9998 45.1314C22.6098 45.7025 23.422 46.0097 24.2586 45.9858C25.0953 45.962 25.8885 45.609 26.4648 45.0041L36.9447 34.0475H28.1955L24.0426 38.3913Z" fill="#B5107F"/>
<path d="M65.2255 3.07749C65.2105 2.45301 65.01 1.84697 64.6493 1.33613C64.2886 0.825281 63.7839 0.432598 63.199 0.207799C62.6142 -0.016999 61.9757 -0.0638017 61.3641 0.0733174C60.7526 0.210437 60.1957 0.52531 59.7639 0.978069L48.0604 13.2424H56.8096L64.3601 5.33243C64.6471 5.03245 64.8713 4.67862 65.0199 4.29152C65.1684 3.90441 65.2383 3.49174 65.2255 3.07749Z" fill="#B5107F"/>
<path d="M72.2655 15.3186C71.7016 15.3186 71.3185 15.672 71.1093 16.3365L68.6764 23.946L66.6691 16.1704C66.6216 15.9342 66.4969 15.7204 66.3144 15.5625C66.1026 15.4106 65.8483 15.3289 65.5874 15.3289C65.3265 15.3289 65.0722 15.4106 64.8604 15.5625C64.6778 15.7239 64.5471 15.9353 64.4844 16.1704L62.1899 23.7976L59.796 16.3365C59.723 16.0395 59.5697 15.7681 59.3527 15.5519C59.1523 15.3912 58.9003 15.3084 58.6434 15.3186C58.4772 15.2953 58.3079 15.3244 58.1591 15.4017C58.0103 15.479 57.8895 15.6007 57.8135 15.7498C57.687 16.1114 57.687 16.505 57.8135 16.8667L61.0975 26.6923C61.1828 26.9051 61.3293 27.0881 61.5186 27.2183C61.7079 27.3485 61.9315 27.42 62.1615 27.4239C62.403 27.4264 62.6391 27.3522 62.8353 27.2118C63.0223 27.0894 63.1603 26.9055 63.2254 26.6923L65.5094 18.6621L67.6869 26.6923C67.7541 26.9094 67.8977 27.0952 68.0912 27.2153C68.286 27.3532 68.519 27.4273 68.758 27.4274C68.9975 27.431 69.2316 27.3565 69.4247 27.2153C69.6049 27.0891 69.7373 26.9061 69.8006 26.6958L73.0847 16.8702C73.1647 16.6955 73.2082 16.5063 73.2125 16.3143C73.2168 16.1223 73.1817 15.9314 73.1095 15.7533C73.0271 15.6064 72.9031 15.4869 72.753 15.4096C72.603 15.3323 72.4334 15.3007 72.2655 15.3186Z" fill="#B5107F"/>
<path d="M83.4292 15.9941C82.5289 15.4665 81.4978 15.2019 80.4537 15.2306C79.3646 15.2085 78.2897 15.4809 77.3435 16.0188C76.447 16.5313 75.7105 17.2812 75.2156 18.1854C74.6926 19.1634 74.4289 20.2583 74.4495 21.3663C74.4268 22.4798 74.7061 23.5788 75.2581 24.5473C75.7902 25.4618 76.566 26.2117 77.4995 26.7138C78.3256 27.1507 79.2335 27.4127 80.166 27.4832C81.0986 27.5538 82.0357 27.4314 82.9186 27.1238C83.5984 26.9109 84.2366 26.5834 84.8053 26.1554C84.9184 26.081 85.0104 25.9788 85.0725 25.8588C85.1346 25.7387 85.1647 25.6047 85.1599 25.4697C85.1457 25.3277 85.1029 25.1901 85.0341 25.065C84.9652 24.9399 84.8717 24.8299 84.7592 24.7416C84.5715 24.5807 84.3292 24.4973 84.0818 24.5084C83.8247 24.5181 83.5769 24.607 83.3725 24.7629C83.0154 25.0158 82.622 25.2136 82.2057 25.3496C81.7511 25.5153 81.2712 25.6014 80.7871 25.604C80.0033 25.619 79.2292 25.4289 78.5422 25.0527C78.0068 24.7544 77.5467 24.3383 77.197 23.836C76.8474 23.3338 76.6172 22.7587 76.5242 22.1545H84.9613C85.0957 22.1593 85.2296 22.137 85.3552 22.089C85.4807 22.0411 85.5952 21.9684 85.6919 21.8753C85.7881 21.7848 85.8637 21.675 85.9139 21.5531C85.964 21.4312 85.9875 21.3 85.9827 21.1684C86.0037 20.1034 85.7793 19.0478 85.3266 18.0829C84.9091 17.2191 84.2503 16.4938 83.4292 15.9941ZM78.2868 17.6729C78.943 17.2904 79.6939 17.0994 80.4537 17.1215C81.0986 17.0944 81.7368 17.2599 82.2866 17.5968C82.8364 17.9337 83.2726 18.4267 83.5392 19.0124C83.7422 19.4422 83.8751 19.9016 83.9329 20.3732H76.5491C76.6193 19.9636 76.7446 19.5654 76.9214 19.1891C77.2186 18.5619 77.6932 18.0349 78.2868 17.6729Z" fill="#B5107F"/>
<path d="M25.3241 26.2202L23.1111 31.2037C22.8167 31.8363 22.9941 32.3029 23.6466 32.5962C23.8133 32.6757 23.9941 32.7213 24.1786 32.7305C24.3785 32.7271 24.5716 32.6581 24.7281 32.5341C24.8845 32.4101 24.9956 32.2382 25.0439 32.0449L31.839 16.8223C32.1322 16.172 31.9466 15.7078 31.2822 15.4297C31.1583 15.3578 31.0199 15.3144 30.877 15.3028C30.7342 15.2911 30.5905 15.3114 30.4565 15.3622C30.3225 15.4131 30.2017 15.4931 30.1028 15.5965C30.0039 15.6999 29.9294 15.8241 29.8849 15.9599L26.3171 23.9935L22.2458 15.9387C22.1939 15.8109 22.1164 15.6951 22.0179 15.5983C21.9195 15.5015 21.8022 15.4258 21.6734 15.3758C21.5445 15.3258 21.4067 15.3026 21.2685 15.3076C21.1303 15.3126 20.9946 15.3458 20.8697 15.405C20.739 15.4559 20.6197 15.5321 20.5187 15.6291C20.4176 15.7262 20.3369 15.8422 20.281 15.9705C20.2271 16.1002 20.2045 16.2406 20.215 16.3806C20.2255 16.5205 20.2687 16.6561 20.3413 16.7763L25.3241 26.2202Z" fill="#1365AF"/>
<path d="M41.873 15.9904C40.9728 15.4625 39.9416 15.198 38.8975 15.227C37.8095 15.2055 36.736 15.4779 35.7908 16.0152C34.8938 16.527 34.1571 17.2771 33.6629 18.1818C33.1399 19.1598 32.8762 20.2547 32.8968 21.3627C32.8736 22.4767 33.1543 23.5762 33.709 24.5436C34.2386 25.4616 35.0132 26.2153 35.9468 26.7208C36.952 27.2593 38.0793 27.5307 39.2202 27.509C39.9454 27.4983 40.664 27.3706 41.3481 27.1308C42.034 26.9169 42.6773 26.5857 43.2491 26.1518C43.3622 26.0774 43.4542 25.9752 43.5163 25.8552C43.5784 25.7351 43.6085 25.6011 43.6037 25.4661C43.5899 25.3244 43.5477 25.1869 43.4794 25.0618C43.4112 24.9367 43.3184 24.8266 43.2065 24.738C43.0186 24.5774 42.7764 24.494 42.5291 24.5048C42.2722 24.5156 42.0247 24.6044 41.8198 24.7592C41.464 25.0122 41.0718 25.21 40.6566 25.346C40.2018 25.511 39.722 25.5971 39.238 25.6004C38.4552 25.6158 37.6822 25.4257 36.9966 25.0491C36.4598 24.7524 35.9987 24.3368 35.6488 23.8343C35.2989 23.3317 35.0696 22.7558 34.9786 22.1509H43.3945C43.5293 22.1553 43.6637 22.1329 43.7898 22.085C43.9158 22.037 44.031 21.9645 44.1286 21.8717C44.2243 21.7811 44.2994 21.6711 44.349 21.5492C44.3985 21.4273 44.4213 21.2962 44.4159 21.1648C44.4369 20.0998 44.2124 19.0442 43.7598 18.0793C43.3466 17.2159 42.6913 16.4903 41.873 15.9904ZM36.7342 17.6693C37.3891 17.2869 38.1388 17.0958 38.8975 17.1179C39.5423 17.0907 40.1806 17.2562 40.7304 17.5932C41.2801 17.9301 41.7163 18.4231 41.983 19.0088C42.1876 19.438 42.3205 19.8976 42.3766 20.3695H34.9928C35.0643 19.9598 35.1907 19.5616 35.3688 19.1855C35.6659 18.5583 36.1405 18.0313 36.7342 17.6693Z" fill="#1365AF"/>
<path d="M54.6894 21.1361C53.8565 20.7333 52.9705 20.4501 52.0579 20.2949C51.4377 20.1801 50.8289 20.0109 50.2386 19.7895C49.9164 19.682 49.6321 19.4845 49.4193 19.2205C49.2823 19.0101 49.2096 18.7645 49.2101 18.5136C49.2126 18.3023 49.2784 18.0965 49.3991 17.9226C49.5198 17.7488 49.6898 17.6149 49.8875 17.5381C50.4058 17.3034 50.971 17.1898 51.5401 17.2059C52.0428 17.1977 52.5439 17.2656 53.0261 17.4074C53.4779 17.5519 53.8888 17.8015 54.2248 18.1354C54.454 18.3459 54.74 18.4848 55.0476 18.5348C55.1915 18.5675 55.3406 18.5705 55.4857 18.5438C55.6308 18.517 55.769 18.4611 55.8917 18.3793C56.0006 18.3066 56.0913 18.2097 56.1565 18.0963C56.2217 17.9828 56.2597 17.8559 56.2676 17.7255C56.2719 17.5894 56.2487 17.4539 56.1993 17.327C56.15 17.2001 56.0755 17.0844 55.9803 16.9868C55.501 16.4129 54.8819 15.9711 54.1823 15.7038C53.3562 15.3793 52.474 15.2208 51.5862 15.2372C50.8455 15.2308 50.1091 15.3504 49.4087 15.5907C48.7527 15.8063 48.1638 16.1874 47.6993 16.6969C47.2467 17.2131 47.0083 17.8816 47.0325 18.5666C47.0284 18.98 47.117 19.3891 47.2919 19.7639C47.4668 20.1388 47.7235 20.4699 48.0433 20.7332C48.7171 21.3246 49.8012 21.7676 51.2954 22.0621C52.4516 22.2671 53.2472 22.5322 53.6822 22.8574C53.877 22.9796 54.0375 23.1491 54.1485 23.35C54.2595 23.5509 54.3175 23.7767 54.317 24.0061C54.3042 24.2329 54.232 24.4524 54.1075 24.6428C53.9831 24.8332 53.8107 24.9877 53.6077 25.0911C53.0039 25.4083 52.3242 25.5538 51.643 25.5117C51.0078 25.5246 50.3771 25.4042 49.7917 25.1583C49.336 24.9865 48.9207 24.723 48.5717 24.3842C48.3796 24.17 48.1164 24.032 47.8305 23.9954C47.6711 23.9828 47.5107 24.0029 47.3594 24.0546C47.2081 24.1063 47.0691 24.1884 46.951 24.2959C46.8313 24.3823 46.7311 24.4926 46.6566 24.6198C46.5821 24.747 46.535 24.8882 46.5183 25.0346C46.4996 25.1818 46.5152 25.3314 46.5637 25.4718C46.6123 25.6121 46.6926 25.7394 46.7985 25.8439C47.3866 26.39 48.0874 26.8014 48.8519 27.0492C49.7741 27.3744 50.7464 27.5359 51.7245 27.5263C52.6268 27.5554 53.5246 27.389 54.356 27.0386C55.002 26.7613 55.5564 26.308 55.9555 25.7308C56.3254 25.1841 56.5196 24.5382 56.5123 23.8788C56.5248 23.3296 56.3783 22.7885 56.0903 22.3202C55.7386 21.8072 55.2546 21.3982 54.6894 21.1361Z" fill="#1365AF"/>
<path d="M98.3275 16.0423C97.5326 15.5614 96.63 15.2854 95.7013 15.2391C94.7725 15.1928 93.8468 15.3777 93.0077 15.7772C92.2851 16.1297 91.6457 16.6308 91.1316 17.2475V11.2744C91.1421 11.1235 91.12 10.9721 91.0669 10.8304C91.0138 10.6887 90.9309 10.56 90.8237 10.4528C90.7166 10.3457 90.5877 10.2627 90.4456 10.2093C90.3036 10.1559 90.1518 10.1335 90.0003 10.1434C89.851 10.1391 89.7024 10.1643 89.5629 10.2177C89.4235 10.2711 89.2961 10.3516 89.1882 10.4544C89.0798 10.561 88.9952 10.6891 88.9396 10.8303C88.884 10.9716 88.8587 11.1228 88.8654 11.2744V21.3615C88.8636 22.462 89.1471 23.5443 89.6882 24.5036C90.2044 25.4165 90.9547 26.1764 91.8622 26.7055C92.5596 27.1161 93.3317 27.3848 94.1339 27.4963C94.9361 27.6078 95.7525 27.5598 96.536 27.355C97.3195 27.1503 98.0545 26.7929 98.6986 26.3035C99.3427 25.8141 99.8831 25.2023 100.289 24.5036C100.836 23.5473 101.117 22.4624 101.101 21.3615C101.119 20.2721 100.863 19.1955 100.356 18.2301C99.8843 17.336 99.1847 16.5814 98.3275 16.0423ZM98.4055 23.4857C98.0759 24.102 97.5859 24.6184 96.9869 24.9807C96.5358 25.2553 96.033 25.4348 95.5096 25.5081C94.9861 25.5814 94.4531 25.5469 93.9436 25.4068C93.434 25.2667 92.9587 25.0239 92.5471 24.6935C92.1354 24.363 91.7961 23.952 91.5501 23.4857C91.2048 22.8325 91.0292 22.1034 91.0394 21.3651C91.0267 20.6265 91.2025 19.8968 91.5501 19.2444C91.8814 18.6359 92.3716 18.1279 92.9687 17.7741C93.5806 17.42 94.2756 17.2335 94.9831 17.2335C95.6907 17.2335 96.3857 17.42 96.9975 17.7741C97.5912 18.1323 98.0803 18.6393 98.4161 19.2444C98.7706 19.8946 98.9503 20.6252 98.9375 21.3651C98.9443 22.1056 98.7612 22.8355 98.4055 23.4857Z" fill="#1365AF"/>
<path d="M113.136 16.0146C112.162 15.4984 111.076 15.2285 109.973 15.2285C108.869 15.2285 107.783 15.4984 106.809 16.0146C105.902 16.5252 105.154 17.2747 104.646 18.1811C104.109 19.1548 103.838 20.2515 103.858 21.3621C103.836 22.4729 104.107 23.5701 104.646 24.543C105.154 25.4494 105.902 26.199 106.809 26.7096C107.787 27.227 108.878 27.4976 109.985 27.4976C111.092 27.4976 112.183 27.227 113.161 26.7096C114.065 26.1991 114.81 25.4492 115.314 24.543C115.845 23.568 116.113 22.4716 116.09 21.3621C116.111 20.2515 115.84 19.1548 115.303 18.1811C114.792 17.2757 114.043 16.5265 113.136 16.0146ZM113.416 23.5251C113.096 24.1297 112.615 24.6347 112.026 24.9848C111.402 25.3324 110.698 25.515 109.983 25.515C109.268 25.515 108.565 25.3324 107.94 24.9848C107.352 24.632 106.869 24.1278 106.543 23.5251C106.193 22.8647 106.017 22.1265 106.032 21.3798C106.018 20.6286 106.193 19.8859 106.543 19.2203C106.867 18.6131 107.35 18.1049 107.94 17.75C108.565 17.4023 109.268 17.2198 109.983 17.2198C110.698 17.2198 111.402 17.4023 112.026 17.75C112.617 18.1022 113.098 18.6112 113.416 19.2203C113.756 19.889 113.926 20.6303 113.913 21.3798C113.927 22.1247 113.757 22.8617 113.416 23.5251Z" fill="#1365AF"/>
<path d="M128.122 16.0146C127.148 15.4984 126.062 15.2285 124.958 15.2285C123.855 15.2285 122.769 15.4984 121.795 16.0146C120.892 16.5276 120.148 17.2768 119.642 18.1811C119.106 19.1548 118.834 20.2515 118.855 21.3621C118.832 22.4729 119.104 23.5701 119.642 24.543C120.152 25.4492 120.901 26.1987 121.809 26.7096C122.787 27.227 123.876 27.4976 124.983 27.4976C126.09 27.4976 127.18 27.227 128.157 26.7096C129.051 26.1989 129.785 25.453 130.282 24.5536C130.813 23.5786 131.081 22.4823 131.058 21.3727C131.079 20.2621 130.808 19.1654 130.271 18.1917C129.767 17.2845 129.024 16.5317 128.122 16.0146ZM128.398 23.5251C128.08 24.1295 127.6 24.6345 127.012 24.9848C126.387 25.3324 125.684 25.515 124.969 25.515C124.254 25.515 123.551 25.3324 122.926 24.9848C122.336 24.634 121.853 24.1293 121.529 23.5251C121.177 22.8653 121.001 22.1267 121.018 21.3798C121.002 20.6284 121.178 19.8853 121.529 19.2203C121.85 18.6116 122.334 18.1029 122.926 17.75C123.551 17.4023 124.254 17.2198 124.969 17.2198C125.684 17.2198 126.387 17.4023 127.012 17.75C127.602 18.1023 128.082 18.6114 128.398 19.2203C128.741 19.888 128.913 20.6298 128.899 21.3798C128.913 22.1252 128.742 22.8626 128.398 23.5251Z" fill="#1365AF"/>
<path d="M143.614 25.8299L139.319 20.5601L143.401 16.9339C143.504 16.845 143.588 16.7369 143.649 16.6156C143.71 16.4943 143.746 16.3622 143.756 16.227C143.752 15.9569 143.65 15.6975 143.467 15.4976C143.285 15.2978 143.036 15.1712 142.766 15.1419C142.629 15.1355 142.491 15.158 142.363 15.2079C142.235 15.2578 142.118 15.3341 142.022 15.4317L136.62 20.2279V11.2258C136.627 11.0817 136.604 10.9378 136.552 10.8029C136.501 10.668 136.423 10.5449 136.322 10.4412C136.105 10.2479 135.824 10.1411 135.533 10.1411C135.242 10.1411 134.961 10.2479 134.744 10.4412C134.644 10.5449 134.565 10.668 134.514 10.8029C134.463 10.9378 134.44 11.0817 134.446 11.2258V26.3388C134.44 26.483 134.463 26.6269 134.514 26.7618C134.565 26.8967 134.644 27.0198 134.744 27.1235C134.961 27.3167 135.242 27.4236 135.533 27.4236C135.824 27.4236 136.105 27.3167 136.322 27.1235C136.423 27.0198 136.501 26.8967 136.552 26.7618C136.604 26.6269 136.627 26.483 136.62 26.3388V22.9741L137.727 21.9739L141.951 27.18C142.035 27.2899 142.142 27.3809 142.265 27.4472C142.387 27.5135 142.521 27.5537 142.66 27.5653C142.946 27.5871 143.229 27.4956 143.447 27.3108C143.561 27.2277 143.656 27.122 143.727 27.0003C143.798 26.8787 143.843 26.7437 143.859 26.6039C143.871 26.4652 143.856 26.3255 143.814 26.1927C143.772 26.0598 143.704 25.9366 143.614 25.8299Z" fill="#1365AF"/>
</g>
<defs>
<clipPath id="clip0_3314_5546">
<rect width="143.75" height="46" fill="white" transform="translate(0.125)"/>
</clipPath>
</defs>
</svg>
