<svg width="32" height="32" viewBox="0 0 32 32" fill="none" xmlns="http://www.w3.org/2000/svg">
<path d="M16.0003 29.3333C23.3641 29.3333 29.3337 23.3638 29.3337 16C29.3337 8.63616 23.3641 2.66663 16.0003 2.66663C8.63653 2.66663 2.66699 8.63616 2.66699 16C2.66699 23.3638 8.63653 29.3333 16.0003 29.3333Z" fill="#0077B5"/>
<path fill-rule="evenodd" clip-rule="evenodd" d="M12.5161 9.5226C12.5161 10.3527 11.8841 11.0244 10.8958 11.0244C9.94592 11.0244 9.31385 10.3527 9.33345 9.5226C9.31385 8.6522 9.94585 8 10.9147 8C11.8841 8 12.4972 8.6522 12.5161 9.5226ZM9.41292 21.8794V12.2108H12.4177V21.8787L9.41292 21.8794Z" fill="white"/>
<path fill-rule="evenodd" clip-rule="evenodd" d="M14.8265 15.2964C14.8265 14.0904 14.7868 13.0623 14.7471 12.2121H17.3571L17.4958 13.5367H17.5551C17.9506 12.9236 18.9389 11.9951 20.5404 11.9951C22.5171 11.9951 24 13.3001 24 16.146V21.8806H20.9951V16.5225C20.9951 15.2763 20.5606 14.4266 19.4732 14.4266C18.6425 14.4266 18.1486 14.9999 17.9512 15.5531C17.8717 15.7512 17.8326 16.0274 17.8326 16.3049V21.8806H14.8277V15.2964H14.8265Z" fill="white"/>
</svg>
