<svg width="32" height="32" viewBox="0 0 32 32" fill="none" xmlns="http://www.w3.org/2000/svg">
<path d="M16.0003 29.3333C23.3641 29.3333 29.3337 23.3638 29.3337 16C29.3337 8.63616 23.3641 2.66663 16.0003 2.66663C8.63653 2.66663 2.66699 8.63616 2.66699 16C2.66699 23.3638 8.63653 29.3333 16.0003 29.3333Z" fill="#3B5998"/>
<path fill-rule="evenodd" clip-rule="evenodd" d="M19.5437 11.3052C19.1281 11.222 18.5669 11.16 18.2139 11.16C17.2581 11.16 17.1961 11.5755 17.1961 12.2404V13.424H19.5853L19.377 15.8758H17.1961V23.3333H14.2045V15.8758H12.667V13.424H14.2045V11.9075C14.2045 9.83016 15.1809 8.66663 17.6321 8.66663C18.4838 8.66663 19.1071 8.79129 19.9172 8.95749L19.5437 11.3052Z" fill="white"/>
</svg>
