<svg width="68" height="68" viewBox="0 0 68 68" fill="none" xmlns="http://www.w3.org/2000/svg">
<path d="M25.6625 50.4131C26.0157 50.5544 26.3898 50.6187 26.774 50.6187C27.1581 50.6187 27.5322 50.5544 27.8854 50.4131C28.2633 50.2619 28.5979 50.0154 28.8941 49.7192L56.165 22.4483C56.7543 21.859 57.0645 21.1251 57.0645 20.2927C57.0645 19.4604 56.7543 18.7265 56.165 18.1372C55.5756 17.5478 54.8418 17.2376 54.0094 17.2376C53.177 17.2376 52.4431 17.5478 51.8538 18.1372L26.774 43.217L16.0733 32.5163C15.4918 31.9348 14.7726 31.6168 13.9531 31.6168C13.1336 31.6168 12.4145 31.9348 11.833 32.5163C11.2362 33.1131 10.9334 33.8618 10.9334 34.7073C10.9334 35.5528 11.2362 36.3016 11.833 36.8983L24.6538 49.7192C24.95 50.0154 25.2846 50.2619 25.6625 50.4131Z" fill="#B5107F" stroke="#B5107F" stroke-width="1.78947"/>
</svg>
