<svg width="27" height="27" viewBox="0 0 27 27" fill="none" xmlns="http://www.w3.org/2000/svg">
<circle cx="13.5" cy="13.5" r="13.5" fill="#41ADEE"/>
<path fill-rule="evenodd" clip-rule="evenodd" d="M20.3125 10.1875C19.9688 10.6875 19.5391 11.1328 19.0469 11.4922C19.0547 11.6016 19.0547 11.7109 19.0547 11.8203C19.0547 15.1563 16.5156 19 11.875 19C10.4453 19 9.11719 18.5859 8 17.8672C8.20313 17.8906 8.39844 17.8984 8.60938 17.8984C9.78906 17.8984 10.875 17.5 11.7422 16.8203C10.6328 16.7969 9.70313 16.0703 9.38281 15.0703C9.53906 15.0938 9.69531 15.1094 9.85938 15.1094C10.0859 15.1094 10.3125 15.0781 10.5234 15.0234C9.36719 14.7891 8.5 13.7734 8.5 12.5469C8.5 12.5391 8.5 12.5234 8.5 12.5156C8.83594 12.7031 9.22656 12.8203 9.64063 12.8359C8.96094 12.3828 8.51563 11.6094 8.51563 10.7344C8.51563 10.2656 8.64063 9.83594 8.85938 9.46094C10.1016 10.9922 11.9688 11.9922 14.0625 12.1016C14.0234 11.9141 14 11.7188 14 11.5234C14 10.1328 15.125 9 16.5234 9C17.25 9 17.9063 9.30469 18.3672 9.79688C18.9375 9.6875 19.4844 9.47656 19.9688 9.1875C19.7813 9.77344 19.3828 10.2656 18.8594 10.5781C19.3672 10.5234 19.8594 10.3828 20.3125 10.1875Z" fill="white"/>
<path fill-rule="evenodd" clip-rule="evenodd" d="M20.3125 10.1875C19.9688 10.6875 19.5391 11.1328 19.0469 11.4922C19.0547 11.6016 19.0547 11.7109 19.0547 11.8203C19.0547 15.1563 16.5156 19 11.875 19C10.4453 19 9.11719 18.5859 8 17.8672C8.20313 17.8906 8.39844 17.8984 8.60938 17.8984C9.78906 17.8984 10.875 17.5 11.7422 16.8203C10.6328 16.7969 9.70313 16.0703 9.38281 15.0703C9.53906 15.0938 9.69531 15.1094 9.85938 15.1094C10.0859 15.1094 10.3125 15.0781 10.5234 15.0234C9.36719 14.7891 8.5 13.7734 8.5 12.5469C8.5 12.5391 8.5 12.5234 8.5 12.5156C8.83594 12.7031 9.22656 12.8203 9.64063 12.8359C8.96094 12.3828 8.51563 11.6094 8.51563 10.7344C8.51563 10.2656 8.64063 9.83594 8.85938 9.46094C10.1016 10.9922 11.9688 11.9922 14.0625 12.1016C14.0234 11.9141 14 11.7188 14 11.5234C14 10.1328 15.125 9 16.5234 9C17.25 9 17.9063 9.30469 18.3672 9.79688C18.9375 9.6875 19.4844 9.47656 19.9688 9.1875C19.7813 9.77344 19.3828 10.2656 18.8594 10.5781C19.3672 10.5234 19.8594 10.3828 20.3125 10.1875Z" fill="white"/>
</svg>
