<svg width="27" height="27" viewBox="0 0 27 27" fill="none" xmlns="http://www.w3.org/2000/svg">
<circle cx="13.5" cy="13.5" r="13.5" fill="#3B5998"/>
<path fill-rule="evenodd" clip-rule="evenodd" d="M16.75 7.09375V9.15625H15.5234C14.5625 9.15625 14.3828 9.61719 14.3828 10.2813V11.7578H16.6719L16.3672 14.0703H14.3828V20H11.9922V14.0703H10V11.7578H11.9922V10.0547C11.9922 8.07813 13.2031 7 14.9688 7C15.8125 7 16.5391 7.0625 16.75 7.09375Z" fill="white"/>
<path fill-rule="evenodd" clip-rule="evenodd" d="M16.75 7.09375V9.15625H15.5234C14.5625 9.15625 14.3828 9.61719 14.3828 10.2813V11.7578H16.6719L16.3672 14.0703H14.3828V20H11.9922V14.0703H10V11.7578H11.9922V10.0547C11.9922 8.07813 13.2031 7 14.9688 7C15.8125 7 16.5391 7.0625 16.75 7.09375Z" fill="white"/>
</svg>
