<svg width="27" height="27" viewBox="0 0 27 27" fill="none" xmlns="http://www.w3.org/2000/svg">
<circle cx="13.5" cy="13.5" r="13.5" fill="#CA2E2A"/>
<path fill-rule="evenodd" clip-rule="evenodd" d="M9 11.6641C9 8.78125 11.6406 7 14.3125 7C16.7656 7 19 8.6875 19 11.2734C19 13.7031 17.7578 16.3984 14.9922 16.3984C14.3359 16.3984 13.5078 16.0703 13.1875 15.4609C12.5938 17.8125 12.6406 18.1641 11.3281 19.961L11.2188 20L11.1484 19.9219C11.1016 19.4297 11.0313 18.9453 11.0313 18.4531C11.0313 16.8594 11.7656 14.5547 12.125 13.0078C11.9297 12.6094 11.875 12.125 11.875 11.6875C11.875 10.8984 12.4219 9.89844 13.3125 9.89844C13.9688 9.89844 14.3203 10.3984 14.3203 11.0156C14.3203 12.0313 13.6328 12.9844 13.6328 13.9688C13.6328 14.6406 14.1875 15.1094 14.8359 15.1094C16.6328 15.1094 17.1875 12.5156 17.1875 11.1328C17.1875 9.28125 15.875 8.27344 14.1016 8.27344C12.0391 8.27344 10.4453 9.75782 10.4453 11.8516C10.4453 12.8594 11.0625 13.375 11.0625 13.6172C11.0625 13.8203 10.9141 14.5391 10.6563 14.5391C10.6172 14.5391 10.5625 14.5234 10.5234 14.5156C9.40625 14.1797 9 12.6875 9 11.6641Z" fill="white"/>
<path fill-rule="evenodd" clip-rule="evenodd" d="M9 11.6641C9 8.78125 11.6406 7 14.3125 7C16.7656 7 19 8.6875 19 11.2734C19 13.7031 17.7578 16.3984 14.9922 16.3984C14.3359 16.3984 13.5078 16.0703 13.1875 15.4609C12.5938 17.8125 12.6406 18.1641 11.3281 19.961L11.2188 20L11.1484 19.9219C11.1016 19.4297 11.0313 18.9453 11.0313 18.4531C11.0313 16.8594 11.7656 14.5547 12.125 13.0078C11.9297 12.6094 11.875 12.125 11.875 11.6875C11.875 10.8984 12.4219 9.89844 13.3125 9.89844C13.9688 9.89844 14.3203 10.3984 14.3203 11.0156C14.3203 12.0313 13.6328 12.9844 13.6328 13.9688C13.6328 14.6406 14.1875 15.1094 14.8359 15.1094C16.6328 15.1094 17.1875 12.5156 17.1875 11.1328C17.1875 9.28125 15.875 8.27344 14.1016 8.27344C12.0391 8.27344 10.4453 9.75782 10.4453 11.8516C10.4453 12.8594 11.0625 13.375 11.0625 13.6172C11.0625 13.8203 10.9141 14.5391 10.6563 14.5391C10.6172 14.5391 10.5625 14.5234 10.5234 14.5156C9.40625 14.1797 9 12.6875 9 11.6641Z" fill="white"/>
</svg>
