<svg width="20" height="14" viewBox="0 0 20 14" fill="none" xmlns="http://www.w3.org/2000/svg">
<path fill-rule="evenodd" clip-rule="evenodd" d="M6.60284 13.6752C6.78715 13.7482 6.97856 13.7799 7.16864 13.7799C7.35873 13.7799 7.55014 13.7482 7.73445 13.6752C7.93811 13.5946 8.1078 13.4674 8.24748 13.329L18.9349 2.74502C19.2303 2.45249 19.3901 2.07989 19.3901 1.66287C19.3901 1.24585 19.2303 0.873246 18.9349 0.580719C18.6395 0.288191 18.2632 0.129883 17.8422 0.129883C17.4211 0.129883 17.0448 0.288191 16.7494 0.580719L7.16864 10.0689L3.22302 6.16139C2.9338 5.87497 2.56441 5.71055 2.14418 5.71055C1.72395 5.71055 1.35457 5.87497 1.06535 6.16139C0.764153 6.45967 0.610107 6.83925 0.610107 7.25728C0.610107 7.67532 0.764153 8.0549 1.06535 8.35318L6.08981 13.329C6.22948 13.4674 6.39918 13.5946 6.60284 13.6752ZM2.72713 6.65248L7.16864 11.051L7.16856 11.0511L2.72704 6.65255C2.56049 6.48761 2.36617 6.40513 2.14409 6.40513C1.95413 6.40513 1.78449 6.46548 1.63515 6.58617C1.78451 6.46543 1.95419 6.40506 2.14418 6.40506C2.36626 6.40506 2.56057 6.48754 2.72713 6.65248ZM17.4088 0.942679C17.5377 0.86386 17.6822 0.824463 17.8421 0.824463C18.0734 0.824463 18.2723 0.906936 18.4389 1.07188C18.6054 1.23683 18.6887 1.43385 18.6887 1.66294C18.6887 1.89203 18.6054 2.08905 18.4389 2.25399L18.439 2.25392C18.6055 2.08898 18.6888 1.89196 18.6888 1.66287C18.6888 1.43378 18.6055 1.23676 18.439 1.07181C18.2724 0.906865 18.0735 0.824392 17.8422 0.824392C17.6822 0.824392 17.5377 0.863821 17.4088 0.942679Z" fill="#CC2696"/>
</svg>
