<svg width="133" height="133" viewBox="0 0 133 133" fill="none" xmlns="http://www.w3.org/2000/svg">
<path d="M33.834 80L42.762 58.184H31.44V54.08H47.406V58.184L38.514 80H33.834ZM53.2754 80L62.2034 58.184H50.8814V54.08H66.8474V58.184L57.9554 80H53.2754ZM74.7567 80L71.8767 77.12L94.9347 54.08L97.8147 56.978L74.7567 80ZM92.4147 80.54C91.2267 80.54 90.1407 80.252 89.1567 79.676C88.1847 79.088 87.4047 78.308 86.8167 77.336C86.2287 76.352 85.9347 75.26 85.9347 74.06C85.9347 72.884 86.2347 71.804 86.8347 70.82C87.4347 69.836 88.2267 69.05 89.2107 68.462C90.1947 67.874 91.2627 67.58 92.4147 67.58C93.6027 67.58 94.6887 67.874 95.6727 68.462C96.6567 69.038 97.4367 69.818 98.0127 70.802C98.6007 71.774 98.8947 72.86 98.8947 74.06C98.8947 75.26 98.6007 76.352 98.0127 77.336C97.4367 78.308 96.6567 79.088 95.6727 79.676C94.6887 80.252 93.6027 80.54 92.4147 80.54ZM92.4147 76.832C92.9067 76.832 93.3627 76.706 93.7827 76.454C94.2147 76.202 94.5567 75.866 94.8087 75.446C95.0607 75.026 95.1867 74.564 95.1867 74.06C95.1867 73.556 95.0607 73.094 94.8087 72.674C94.5567 72.254 94.2147 71.918 93.7827 71.666C93.3627 71.414 92.9067 71.288 92.4147 71.288C91.9107 71.288 91.4487 71.414 91.0287 71.666C90.6087 71.918 90.2667 72.254 90.0027 72.674C89.7507 73.094 89.6247 73.556 89.6247 74.06C89.6247 74.564 89.7507 75.026 90.0027 75.446C90.2667 75.866 90.6087 76.202 91.0287 76.454C91.4487 76.706 91.9107 76.832 92.4147 76.832ZM77.2767 66.5C76.0887 66.5 75.0027 66.212 74.0187 65.636C73.0347 65.048 72.2487 64.268 71.6607 63.296C71.0847 62.312 70.7967 61.22 70.7967 60.02C70.7967 58.844 71.0967 57.764 71.6967 56.78C72.2967 55.796 73.0887 55.01 74.0727 54.422C75.0567 53.834 76.1247 53.54 77.2767 53.54C78.4647 53.54 79.5447 53.834 80.5167 54.422C81.5007 54.998 82.2867 55.778 82.8747 56.762C83.4627 57.734 83.7567 58.82 83.7567 60.02C83.7567 61.22 83.4627 62.312 82.8747 63.296C82.2867 64.268 81.5007 65.048 80.5167 65.636C79.5447 66.212 78.4647 66.5 77.2767 66.5ZM77.2767 62.792C77.7807 62.792 78.2427 62.666 78.6627 62.414C79.0827 62.162 79.4187 61.826 79.6707 61.406C79.9227 60.986 80.0487 60.524 80.0487 60.02C80.0487 59.516 79.9227 59.054 79.6707 58.634C79.4187 58.214 79.0827 57.878 78.6627 57.626C78.2427 57.374 77.7807 57.248 77.2767 57.248C76.7727 57.248 76.3107 57.374 75.8907 57.626C75.4707 57.878 75.1347 58.214 74.8827 58.634C74.6307 59.054 74.5047 59.516 74.5047 60.02C74.5047 60.524 74.6307 60.986 74.8827 61.406C75.1347 61.826 75.4707 62.162 75.8907 62.414C76.3107 62.666 76.7727 62.792 77.2767 62.792Z" fill="#313142"/>
<path d="M66.5 -2.90681e-06C103.227 -4.51219e-06 133 29.7731 133 66.5C133 103.227 103.227 133 66.5 133C29.7731 133 -1.30142e-06 103.227 -2.90681e-06 66.5C-4.51219e-06 29.7731 29.7731 -1.30142e-06 66.5 -2.90681e-06ZM66.5 121.812C97.048 121.812 121.812 97.048 121.812 66.5C121.812 35.952 97.048 11.188 66.5 11.188C35.952 11.188 11.188 35.952 11.188 66.5C11.188 97.048 35.952 121.812 66.5 121.812Z" fill="#E4E4EF"/>
<path d="M66.5 5.46008C66.5 2.44456 68.9489 -0.0233142 71.9543 0.223955C85.7735 1.36095 98.9434 6.79683 109.576 15.8376C121.601 26.0614 129.597 40.2288 132.135 55.8066C134.673 71.3845 131.587 87.3573 123.43 100.869C116.217 112.817 105.453 122.153 92.7095 127.617C89.9381 128.806 86.8324 127.243 85.8753 124.383V124.383C84.9181 121.524 86.4749 118.454 89.2268 117.221C99.5189 112.61 108.208 104.954 114.081 95.2253C120.899 83.9322 123.478 70.5824 121.357 57.5626C119.235 44.5428 112.552 32.702 102.503 24.157C93.8451 16.7959 83.1752 12.2941 71.9516 11.1881C68.9506 10.8924 66.5 8.47561 66.5 5.46008V5.46008Z" fill="#CC2696"/>
</svg>
