<svg width="133" height="133" viewBox="0 0 133 133" fill="none" xmlns="http://www.w3.org/2000/svg">
<path d="M43.284 80V75.716H31.8V71.666L40.098 54.08H45.048L36.75 71.666H43.284V64.916H47.676V71.666H50.106V75.716H47.676V80H43.284ZM62.1083 80.54C60.7883 80.54 59.5583 80.27 58.4183 79.73C57.2783 79.178 56.2943 78.422 55.4663 77.462C54.6503 76.502 54.0623 75.386 53.7023 74.114L57.8783 72.998C58.0463 73.694 58.3523 74.294 58.7963 74.798C59.2523 75.302 59.7803 75.692 60.3803 75.968C60.9923 76.244 61.6223 76.382 62.2703 76.382C63.1103 76.382 63.8783 76.178 64.5743 75.77C65.2703 75.362 65.8223 74.816 66.2303 74.132C66.6383 73.436 66.8423 72.668 66.8423 71.828C66.8423 70.988 66.6323 70.226 66.2123 69.542C65.8043 68.846 65.2523 68.3 64.5563 67.904C63.8603 67.496 63.0983 67.292 62.2703 67.292C61.2743 67.292 60.4463 67.472 59.7863 67.832C59.1383 68.192 58.6403 68.576 58.2923 68.984L54.5843 67.796L55.3763 54.08H69.4523V58.148H57.6983L59.3183 56.618L58.7423 66.158L57.9503 65.186C58.6223 64.574 59.4023 64.118 60.2903 63.818C61.1783 63.518 62.0363 63.368 62.8643 63.368C64.4843 63.368 65.9183 63.74 67.1663 64.484C68.4263 65.216 69.4103 66.218 70.1183 67.49C70.8383 68.762 71.1983 70.208 71.1983 71.828C71.1983 73.448 70.7783 74.918 69.9383 76.238C69.0983 77.546 67.9883 78.59 66.6083 79.37C65.2403 80.15 63.7403 80.54 62.1083 80.54ZM79.1161 80L76.2361 77.12L99.2941 54.08L102.174 56.978L79.1161 80ZM96.7741 80.54C95.5861 80.54 94.5001 80.252 93.5161 79.676C92.5441 79.088 91.7641 78.308 91.1761 77.336C90.5881 76.352 90.2941 75.26 90.2941 74.06C90.2941 72.884 90.5941 71.804 91.1941 70.82C91.7941 69.836 92.5861 69.05 93.5701 68.462C94.5541 67.874 95.6221 67.58 96.7741 67.58C97.9621 67.58 99.0481 67.874 100.032 68.462C101.016 69.038 101.796 69.818 102.372 70.802C102.96 71.774 103.254 72.86 103.254 74.06C103.254 75.26 102.96 76.352 102.372 77.336C101.796 78.308 101.016 79.088 100.032 79.676C99.0481 80.252 97.9621 80.54 96.7741 80.54ZM96.7741 76.832C97.2661 76.832 97.7221 76.706 98.1421 76.454C98.5741 76.202 98.9161 75.866 99.1681 75.446C99.4201 75.026 99.5461 74.564 99.5461 74.06C99.5461 73.556 99.4201 73.094 99.1681 72.674C98.9161 72.254 98.5741 71.918 98.1421 71.666C97.7221 71.414 97.2661 71.288 96.7741 71.288C96.2701 71.288 95.8081 71.414 95.3881 71.666C94.9681 71.918 94.6261 72.254 94.3621 72.674C94.1101 73.094 93.9841 73.556 93.9841 74.06C93.9841 74.564 94.1101 75.026 94.3621 75.446C94.6261 75.866 94.9681 76.202 95.3881 76.454C95.8081 76.706 96.2701 76.832 96.7741 76.832ZM81.6361 66.5C80.4481 66.5 79.3621 66.212 78.3781 65.636C77.3941 65.048 76.6081 64.268 76.0201 63.296C75.4441 62.312 75.1561 61.22 75.1561 60.02C75.1561 58.844 75.4561 57.764 76.0561 56.78C76.6561 55.796 77.4481 55.01 78.4321 54.422C79.4161 53.834 80.4841 53.54 81.6361 53.54C82.8241 53.54 83.9041 53.834 84.8761 54.422C85.8601 54.998 86.6461 55.778 87.2341 56.762C87.8221 57.734 88.1161 58.82 88.1161 60.02C88.1161 61.22 87.8221 62.312 87.2341 63.296C86.6461 64.268 85.8601 65.048 84.8761 65.636C83.9041 66.212 82.8241 66.5 81.6361 66.5ZM81.6361 62.792C82.1401 62.792 82.6021 62.666 83.0221 62.414C83.4421 62.162 83.7781 61.826 84.0301 61.406C84.2821 60.986 84.4081 60.524 84.4081 60.02C84.4081 59.516 84.2821 59.054 84.0301 58.634C83.7781 58.214 83.4421 57.878 83.0221 57.626C82.6021 57.374 82.1401 57.248 81.6361 57.248C81.1321 57.248 80.6701 57.374 80.2501 57.626C79.8301 57.878 79.4941 58.214 79.2421 58.634C78.9901 59.054 78.8641 59.516 78.8641 60.02C78.8641 60.524 78.9901 60.986 79.2421 61.406C79.4941 61.826 79.8301 62.162 80.2501 62.414C80.6701 62.666 81.1321 62.792 81.6361 62.792Z" fill="#313142"/>
<path d="M66.5 -2.90681e-06C103.227 -4.51219e-06 133 29.7731 133 66.5C133 103.227 103.227 133 66.5 133C29.7731 133 -1.30142e-06 103.227 -2.90681e-06 66.5C-4.51219e-06 29.7731 29.7731 -1.30142e-06 66.5 -2.90681e-06ZM66.5 121.812C97.048 121.812 121.812 97.048 121.812 66.5C121.812 35.952 97.048 11.188 66.5 11.188C35.952 11.188 11.188 35.952 11.188 66.5C11.188 97.048 35.952 121.812 66.5 121.812Z" fill="#E9E5F1"/>
<path d="M66.5 5.46008C66.5 2.44456 68.9489 -0.0233184 71.9543 0.22395C85.7735 1.36094 98.9434 6.79683 109.576 15.8376C121.601 26.0614 129.597 40.2288 132.135 55.8066C134.673 71.3845 131.587 87.3573 123.43 100.869C116.217 112.817 105.453 122.153 92.7095 127.617C89.9381 128.806 86.8324 127.243 85.8753 124.383C84.9181 121.524 86.4749 118.454 89.2268 117.221C99.5189 112.61 108.208 104.954 114.081 95.2253C120.899 83.9322 123.478 70.5824 121.357 57.5626C119.235 44.5428 112.552 32.702 102.503 24.157C93.8451 16.7959 83.1752 12.2941 71.9516 11.1881C68.9506 10.8924 66.5 8.47561 66.5 5.46008Z" fill="url(#paint0_linear_3346_6377)"/>
<defs>
<linearGradient id="paint0_linear_3346_6377" x1="-14.0673" y1="152.183" x2="133" y2="-1.43067e-06" gradientUnits="userSpaceOnUse">
<stop stop-color="#FFE870"/>
<stop offset="0.239583" stop-color="#FF80C5"/>
<stop offset="0.65625" stop-color="#6442FF"/>
<stop offset="1" stop-color="#58ABF1"/>
</linearGradient>
</defs>
</svg>
