<svg width="133" height="133" viewBox="0 0 133 133" fill="none" xmlns="http://www.w3.org/2000/svg">
<path d="M40.206 80.54C38.886 80.54 37.656 80.27 36.516 79.73C35.376 79.178 34.392 78.422 33.564 77.462C32.748 76.502 32.16 75.386 31.8 74.114L35.976 72.998C36.144 73.694 36.45 74.294 36.894 74.798C37.35 75.302 37.878 75.692 38.478 75.968C39.09 76.244 39.72 76.382 40.368 76.382C41.208 76.382 41.976 76.178 42.672 75.77C43.368 75.362 43.92 74.816 44.328 74.132C44.736 73.436 44.94 72.668 44.94 71.828C44.94 70.988 44.73 70.226 44.31 69.542C43.902 68.846 43.35 68.3 42.654 67.904C41.958 67.496 41.196 67.292 40.368 67.292C39.372 67.292 38.544 67.472 37.884 67.832C37.236 68.192 36.738 68.576 36.39 68.984L32.682 67.796L33.474 54.08H47.55V58.148H35.796L37.416 56.618L36.84 66.158L36.048 65.186C36.72 64.574 37.5 64.118 38.388 63.818C39.276 63.518 40.134 63.368 40.962 63.368C42.582 63.368 44.016 63.74 45.264 64.484C46.524 65.216 47.508 66.218 48.216 67.49C48.936 68.762 49.296 70.208 49.296 71.828C49.296 73.448 48.876 74.918 48.036 76.238C47.196 77.546 46.086 78.59 44.706 79.37C43.338 80.15 41.838 80.54 40.206 80.54ZM62.9378 80.54C61.1018 80.54 59.4818 80.15 58.0778 79.37C56.6738 78.578 55.5758 77.48 54.7838 76.076C54.0038 74.672 53.6138 73.052 53.6138 71.216V62.864C53.6138 61.028 54.0038 59.408 54.7838 58.004C55.5758 56.6 56.6738 55.508 58.0778 54.728C59.4818 53.936 61.1018 53.54 62.9378 53.54C64.7738 53.54 66.3878 53.936 67.7798 54.728C69.1838 55.508 70.2818 56.6 71.0738 58.004C71.8658 59.408 72.2617 61.028 72.2617 62.864V71.216C72.2617 73.052 71.8658 74.672 71.0738 76.076C70.2818 77.48 69.1838 78.578 67.7798 79.37C66.3878 80.15 64.7738 80.54 62.9378 80.54ZM62.9378 76.418C63.8498 76.418 64.6778 76.202 65.4218 75.77C66.1658 75.326 66.7538 74.738 67.1858 74.006C67.6178 73.262 67.8338 72.434 67.8338 71.522V62.54C67.8338 61.616 67.6178 60.788 67.1858 60.056C66.7538 59.312 66.1658 58.724 65.4218 58.292C64.6778 57.848 63.8498 57.626 62.9378 57.626C62.0258 57.626 61.1978 57.848 60.4538 58.292C59.7098 58.724 59.1218 59.312 58.6898 60.056C58.2578 60.788 58.0418 61.616 58.0418 62.54V71.522C58.0418 72.434 58.2578 73.262 58.6898 74.006C59.1218 74.738 59.7098 75.326 60.4538 75.77C61.1978 76.202 62.0258 76.418 62.9378 76.418ZM80.9091 80L78.0291 77.12L101.087 54.08L103.967 56.978L80.9091 80ZM98.5671 80.54C97.3791 80.54 96.2931 80.252 95.3091 79.676C94.3371 79.088 93.5571 78.308 92.9691 77.336C92.3811 76.352 92.0871 75.26 92.0871 74.06C92.0871 72.884 92.3871 71.804 92.9871 70.82C93.5871 69.836 94.3791 69.05 95.3631 68.462C96.3471 67.874 97.4151 67.58 98.5671 67.58C99.7551 67.58 100.841 67.874 101.825 68.462C102.809 69.038 103.589 69.818 104.165 70.802C104.753 71.774 105.047 72.86 105.047 74.06C105.047 75.26 104.753 76.352 104.165 77.336C103.589 78.308 102.809 79.088 101.825 79.676C100.841 80.252 99.7551 80.54 98.5671 80.54ZM98.5671 76.832C99.0591 76.832 99.5151 76.706 99.9351 76.454C100.367 76.202 100.709 75.866 100.961 75.446C101.213 75.026 101.339 74.564 101.339 74.06C101.339 73.556 101.213 73.094 100.961 72.674C100.709 72.254 100.367 71.918 99.9351 71.666C99.5151 71.414 99.0591 71.288 98.5671 71.288C98.0631 71.288 97.6011 71.414 97.1811 71.666C96.7611 71.918 96.4191 72.254 96.1551 72.674C95.9031 73.094 95.7771 73.556 95.7771 74.06C95.7771 74.564 95.9031 75.026 96.1551 75.446C96.4191 75.866 96.7611 76.202 97.1811 76.454C97.6011 76.706 98.0631 76.832 98.5671 76.832ZM83.4291 66.5C82.2411 66.5 81.1551 66.212 80.1711 65.636C79.1871 65.048 78.4011 64.268 77.8131 63.296C77.2371 62.312 76.9491 61.22 76.9491 60.02C76.9491 58.844 77.2491 57.764 77.8491 56.78C78.4491 55.796 79.2411 55.01 80.2251 54.422C81.2091 53.834 82.2771 53.54 83.4291 53.54C84.6171 53.54 85.6971 53.834 86.6691 54.422C87.6531 54.998 88.4391 55.778 89.0271 56.762C89.6151 57.734 89.9091 58.82 89.9091 60.02C89.9091 61.22 89.6151 62.312 89.0271 63.296C88.4391 64.268 87.6531 65.048 86.6691 65.636C85.6971 66.212 84.6171 66.5 83.4291 66.5ZM83.4291 62.792C83.9331 62.792 84.3951 62.666 84.8151 62.414C85.2351 62.162 85.5711 61.826 85.8231 61.406C86.0751 60.986 86.2011 60.524 86.2011 60.02C86.2011 59.516 86.0751 59.054 85.8231 58.634C85.5711 58.214 85.2351 57.878 84.8151 57.626C84.3951 57.374 83.9331 57.248 83.4291 57.248C82.9251 57.248 82.4631 57.374 82.0431 57.626C81.6231 57.878 81.2871 58.214 81.0351 58.634C80.7831 59.054 80.6571 59.516 80.6571 60.02C80.6571 60.524 80.7831 60.986 81.0351 61.406C81.2871 61.826 81.6231 62.162 82.0431 62.414C82.4631 62.666 82.9251 62.792 83.4291 62.792Z" fill="#313142"/>
<path d="M66.5 -2.90681e-06C103.227 -4.51219e-06 133 29.7731 133 66.5C133 103.227 103.227 133 66.5 133C29.7731 133 -1.30142e-06 103.227 -2.90681e-06 66.5C-4.51219e-06 29.7731 29.7731 -1.30142e-06 66.5 -2.90681e-06ZM66.5 121.812C97.048 121.812 121.812 97.048 121.812 66.5C121.812 35.952 97.048 11.188 66.5 11.188C35.952 11.188 11.188 35.952 11.188 66.5C11.188 97.048 35.952 121.812 66.5 121.812Z" fill="#FFDEE2"/>
<path d="M66.5 5.46008C66.5 2.44456 68.9489 -0.0233142 71.9543 0.223955C85.7735 1.36095 98.9434 6.79683 109.576 15.8376C121.601 26.0614 129.597 40.2288 132.135 55.8066C134.673 71.3845 131.587 87.3573 123.43 100.869C116.217 112.817 105.453 122.153 92.7095 127.617C89.9381 128.806 86.8324 127.243 85.8753 124.383V124.383C84.9181 121.524 86.4749 118.454 89.2268 117.221C99.5189 112.61 108.208 104.954 114.081 95.2253C120.899 83.9322 123.478 70.5824 121.357 57.5626C119.235 44.5428 112.552 32.702 102.503 24.157C93.8451 16.7959 83.1752 12.2941 71.9516 11.1881C68.9506 10.8924 66.5 8.47561 66.5 5.46008V5.46008Z" fill="#CC2696"/>
</svg>
