<svg width="85" height="97" viewBox="0 0 85 97" fill="none" xmlns="http://www.w3.org/2000/svg">
<rect opacity="0.2" x="8" y="0.5" width="76" height="76" rx="16" fill="url(#paint0_linear_3406_508)"/>
<g filter="url(#filter0_d_3406_508)">
<rect x="20" y="12.5" width="52" height="52" rx="8" fill="white"/>
<rect x="20.5789" y="13.0789" width="50.8421" height="50.8421" rx="7.42105" stroke="black" stroke-opacity="0.1" stroke-width="1.15789"/>
</g>
<path d="M54.8337 31.2151C55.9291 31.166 56.7773 30.2381 56.7282 29.1427C56.679 28.0472 55.7511 27.199 54.6557 27.2482C53.5603 27.2973 52.7121 28.2252 52.7612 29.3206C52.8104 30.4161 53.7382 31.2643 54.8337 31.2151Z" fill="url(#paint1_linear_3406_508)"/>
<path fill-rule="evenodd" clip-rule="evenodd" d="M46.3449 45.4977H46.345C60.0141 45.4977 64.0995 49.8123 64.0995 52.1796C64.0995 54.5086 32.065 54.5468 32.065 52.4086C32.065 50.7286 34.5468 47.445 40.6559 46.1086C40.6559 42.9396 40.1213 38.3959 37.525 34.005C35.5013 34.8832 34.2032 37.2886 34.1268 40.725C34.1268 41.145 33.5541 41.3359 33.325 40.9541C31.7595 38.5105 31.4923 35.4177 32.7904 33.2032C31.3013 34.1196 29.8123 35.685 28.6286 37.4414C28.3995 37.785 27.8268 37.6323 27.8268 37.2123C27.6741 33.6232 29.5832 30.3396 32.065 29.0032C30.9959 28.7359 29.8123 28.6977 28.6668 28.8123C28.2086 28.8505 27.9795 28.2777 28.3613 28.0105C30.5377 26.5596 33.2104 26.1014 35.425 26.5596C36.1886 24.6505 37.8686 23.0086 39.9686 22.1686C40.3886 22.0159 40.7323 22.4359 40.5032 22.8177C39.9686 23.6959 39.5486 24.5741 39.2813 25.4523C41.8395 24.2305 45.5432 24.6123 48.3304 26.7505C48.6741 27.0177 48.4832 27.5523 48.0632 27.5523C45.7341 27.5523 43.825 27.7814 42.4123 28.2777C44.8941 28.6977 47.1468 30.8741 47.9868 33.8523C48.1013 34.2341 47.6432 34.5777 47.2995 34.3105C44.665 32.1341 42.0304 31.7141 39.8923 32.6686C43.0995 37.4032 44.665 42.4814 45.3523 45.5359C45.6959 45.4977 46.0013 45.4977 46.3449 45.4977ZM51.6144 37.5939C51.4235 37.9757 50.9271 38.1666 50.5071 37.9757C50.0871 37.7848 49.9344 37.2884 50.0871 36.9066L51.9199 32.9357C52.2635 32.2102 52.989 31.752 53.7908 31.752H55.6617C56.4635 31.752 57.189 32.2102 57.5326 32.9357L59.3653 36.9066C59.5562 37.3266 59.4035 37.8229 58.9835 38.0139C58.869 38.052 58.7544 38.0902 58.6399 38.0902C58.3344 38.0902 58.029 37.8993 57.8762 37.5939L56.5399 34.7302V37.8229L57.4944 45.3448C56.8835 45.192 56.1962 45.0393 55.509 44.8866L54.7453 38.7011L53.9817 44.6193C53.371 44.543 52.7222 44.4666 52.0733 44.3903L52.0726 44.3902L52.9508 37.8229V34.7302L51.6144 37.5939Z" fill="url(#paint2_linear_3406_508)"/>
<defs>
<filter id="filter0_d_3406_508" x="0.31579" y="12.5" width="84.4211" height="84.4211" filterUnits="userSpaceOnUse" color-interpolation-filters="sRGB">
<feFlood flood-opacity="0" result="BackgroundImageFix"/>
<feColorMatrix in="SourceAlpha" type="matrix" values="0 0 0 0 0 0 0 0 0 0 0 0 0 0 0 0 0 0 127 0" result="hardAlpha"/>
<feOffset dx="-3.47368" dy="16.2105"/>
<feGaussianBlur stdDeviation="8.10526"/>
<feComposite in2="hardAlpha" operator="out"/>
<feColorMatrix type="matrix" values="0 0 0 0 0 0 0 0 0 0 0 0 0 0 0 0 0 0 0.05 0"/>
<feBlend mode="normal" in2="BackgroundImageFix" result="effect1_dropShadow_3406_508"/>
<feBlend mode="normal" in="SourceGraphic" in2="effect1_dropShadow_3406_508" result="shape"/>
</filter>
<linearGradient id="paint0_linear_3406_508" x1="-2.96154" y1="-7.53846" x2="84" y2="76.5" gradientUnits="userSpaceOnUse">
<stop stop-color="#FFE870"/>
<stop offset="0.239583" stop-color="#FF80C5"/>
<stop offset="0.65625" stop-color="#6442FF"/>
<stop offset="1" stop-color="#58ABF1"/>
</linearGradient>
<linearGradient id="paint1_linear_3406_508" x1="52.0813" y1="26.9432" x2="56.8171" y2="31.1261" gradientUnits="userSpaceOnUse">
<stop stop-color="#FFE870"/>
<stop offset="0.239583" stop-color="#FF80C5"/>
<stop offset="0.65625" stop-color="#6442FF"/>
<stop offset="1" stop-color="#58ABF1"/>
</linearGradient>
<linearGradient id="paint2_linear_3406_508" x1="22.5854" y1="18.7694" x2="58.8632" y2="58.7251" gradientUnits="userSpaceOnUse">
<stop stop-color="#FFE870"/>
<stop offset="0.239583" stop-color="#FF80C5"/>
<stop offset="0.65625" stop-color="#6442FF"/>
<stop offset="1" stop-color="#58ABF1"/>
</linearGradient>
</defs>
</svg>
