<svg width="85" height="97" viewBox="0 0 85 97" fill="none" xmlns="http://www.w3.org/2000/svg">
<rect opacity="0.2" x="8" y="0.5" width="76" height="76" rx="16" fill="url(#paint0_linear_3406_6248)"/>
<g filter="url(#filter0_d_3406_6248)">
<rect x="20" y="12.5" width="52" height="52" rx="8" fill="white"/>
<rect x="20.5789" y="13.0789" width="50.8421" height="50.8421" rx="7.42105" stroke="black" stroke-opacity="0.1" stroke-width="1.15789"/>
</g>
<path fill-rule="evenodd" clip-rule="evenodd" d="M37.8784 22.2676C35.7811 22.2676 34.0935 23.6234 34.0935 25.3113V26.5583C34.0935 28.2461 35.7811 29.602 37.8784 29.602C39.9757 29.602 41.6633 28.2461 41.6633 26.5583V25.3113C41.6633 23.623 39.9757 22.2676 37.8784 22.2676ZM47.2416 23.7392C45.3523 23.7392 43.8296 24.9628 43.8296 26.4819V27.6071C43.8296 29.1271 45.3527 30.3498 47.2416 30.3498C49.13 30.3498 50.6536 29.1271 50.6536 27.6071V26.4819C50.6536 24.9628 49.13 23.7392 47.2416 23.7392ZM52.1855 27.6731C52.1855 26.3189 53.542 25.2289 55.2242 25.2289C56.9073 25.2289 58.2615 26.3189 58.2611 27.6731V28.674C58.2611 30.0256 56.9073 31.1157 55.2242 31.1157C53.542 31.1157 52.1855 30.0256 52.1855 28.674V27.6731ZM53.537 33.1258C53.537 32.4674 53.3259 31.8587 52.9699 31.351H53.0601C53.6828 31.7068 54.433 31.9115 55.2241 31.9115C56.0134 31.9115 56.7663 31.7063 57.389 31.351H57.6574C58.9725 31.351 60.0325 32.3472 60.0325 33.5859L60.0303 37.9046C60.0303 39.335 59.5165 39.9562 58.4699 40.5255L58.7614 48.5723C58.7014 49.6909 56.4281 49.6846 56.289 48.5723L55.5739 42.8823C55.553 42.7014 55.4232 42.549 55.2241 42.549C55.0254 42.549 54.8956 42.7014 54.8725 42.8823L54.1596 48.5723C54.0556 49.4012 52.7636 49.6151 52.0899 49.207L51.8748 43.3486L51.9561 41.1513C52.3401 40.8964 52.7223 40.639 52.9725 40.2467C53.3681 39.6272 53.5348 38.8745 53.5348 37.9766L53.537 33.1258ZM44.1902 30.6327C44.2946 30.6218 44.4013 30.6156 44.5098 30.6156V30.6151H44.8111C45.5124 31.012 46.3529 31.243 47.2418 31.243C48.1284 31.243 48.9733 31.012 49.672 30.6151H49.9729C51.4493 30.6151 52.6418 31.7337 52.6418 33.1247L52.6369 37.9755C52.6369 39.5779 52.0609 40.2778 50.8871 40.9191L51.216 49.9559C51.1466 51.2097 48.5933 51.203 48.4355 49.9559L47.6351 43.5659C47.6098 43.3612 47.464 43.1909 47.2418 43.1909C47.0169 43.1909 46.8738 43.3612 46.8458 43.5659L46.0444 49.9559C45.8898 51.203 43.3364 51.2097 43.2671 49.9559L43.5866 41.2351C43.8369 41.0451 44.0653 40.8337 44.2391 40.5658C44.6769 39.8764 44.8618 39.0417 44.8618 38.0475L44.864 32.6642C44.864 31.9057 44.6138 31.2104 44.1902 30.6327ZM31.8887 32.6802C31.8887 31.1364 33.21 29.8961 34.8491 29.8961L35.1816 29.8957C35.9598 30.3385 36.8922 30.5935 37.8784 30.5935C38.8647 30.5935 39.7998 30.3381 40.5753 29.8957H40.9109C42.55 29.8957 43.8691 31.136 43.8691 32.6798L43.8669 38.0626C43.8669 39.8421 43.2278 40.6178 41.9224 41.329L42.2882 51.3558C42.2127 52.749 39.3789 52.7377 39.2051 51.3558L38.3162 44.2659C38.2882 44.0386 38.1264 43.8494 37.8789 43.8494C37.6313 43.8494 37.4696 44.0386 37.4416 44.2659L36.5527 51.3558C36.3793 52.7377 33.546 52.749 33.4696 51.3558L33.8353 41.3294C32.5322 40.6182 31.8927 39.8425 31.8927 38.0631L31.8887 32.6802Z" fill="url(#paint1_linear_3406_6248)"/>
<defs>
<filter id="filter0_d_3406_6248" x="0.31579" y="12.5" width="84.4211" height="84.4211" filterUnits="userSpaceOnUse" color-interpolation-filters="sRGB">
<feFlood flood-opacity="0" result="BackgroundImageFix"/>
<feColorMatrix in="SourceAlpha" type="matrix" values="0 0 0 0 0 0 0 0 0 0 0 0 0 0 0 0 0 0 127 0" result="hardAlpha"/>
<feOffset dx="-3.47368" dy="16.2105"/>
<feGaussianBlur stdDeviation="8.10526"/>
<feComposite in2="hardAlpha" operator="out"/>
<feColorMatrix type="matrix" values="0 0 0 0 0 0 0 0 0 0 0 0 0 0 0 0 0 0 0.05 0"/>
<feBlend mode="normal" in2="BackgroundImageFix" result="effect1_dropShadow_3406_6248"/>
<feBlend mode="normal" in="SourceGraphic" in2="effect1_dropShadow_3406_6248" result="shape"/>
</filter>
<linearGradient id="paint0_linear_3406_6248" x1="-2.96154" y1="-7.53846" x2="84" y2="76.5" gradientUnits="userSpaceOnUse">
<stop stop-color="#FFE870"/>
<stop offset="0.239583" stop-color="#FF80C5"/>
<stop offset="0.65625" stop-color="#6442FF"/>
<stop offset="1" stop-color="#58ABF1"/>
</linearGradient>
<linearGradient id="paint1_linear_3406_6248" x1="27.8295" y1="19.0809" x2="62.1441" y2="50.0573" gradientUnits="userSpaceOnUse">
<stop stop-color="#FFE870"/>
<stop offset="0.239583" stop-color="#FF80C5"/>
<stop offset="0.65625" stop-color="#6442FF"/>
<stop offset="1" stop-color="#58ABF1"/>
</linearGradient>
</defs>
</svg>
