<svg width="85" height="97" viewBox="0 0 85 97" fill="none" xmlns="http://www.w3.org/2000/svg">
<rect opacity="0.2" x="8" width="76" height="76" rx="16" fill="url(#paint0_linear_2485_12525)"/>
<g filter="url(#filter0_d_2485_12525)">
<rect x="20" y="12" width="52" height="52" rx="8" fill="white"/>
<rect x="20.5789" y="12.5789" width="50.8421" height="50.8421" rx="7.42105" stroke="black" stroke-opacity="0.1" stroke-width="1.15789"/>
</g>
<path d="M56 41.3333H59.3334V46.3333H64.3334V49.6667H59.3334V54.6667H56V49.6667H51V46.3333H56V41.3333ZM32.6667 23H56C56.8841 23 57.7319 23.3512 58.3571 23.9763C58.9822 24.6014 59.3334 25.4493 59.3334 26.3333V38.1333C56.75 37.7 54.2 38.3 52.1334 39.6667H46V46.3333H47.8C47.6167 47.4667 47.6167 48.5833 47.8 49.6667H32.6667C31.7827 49.6667 30.9348 49.3155 30.3097 48.6904C29.6846 48.0652 29.3334 47.2174 29.3334 46.3333V26.3333C29.3334 25.4493 29.6846 24.6014 30.3097 23.9763C30.9348 23.3512 31.7827 23 32.6667 23ZM32.6667 29.6667V36.3333H42.6667V29.6667H32.6667ZM46 29.6667V36.3333H56V29.6667H46ZM32.6667 39.6667V46.3333H42.6667V39.6667H32.6667Z" fill="url(#paint1_linear_2485_12525)"/>
<defs>
<filter id="filter0_d_2485_12525" x="0.31579" y="12" width="84.4211" height="84.4211" filterUnits="userSpaceOnUse" color-interpolation-filters="sRGB">
<feFlood flood-opacity="0" result="BackgroundImageFix"/>
<feColorMatrix in="SourceAlpha" type="matrix" values="0 0 0 0 0 0 0 0 0 0 0 0 0 0 0 0 0 0 127 0" result="hardAlpha"/>
<feOffset dx="-3.47368" dy="16.2105"/>
<feGaussianBlur stdDeviation="8.10526"/>
<feComposite in2="hardAlpha" operator="out"/>
<feColorMatrix type="matrix" values="0 0 0 0 0 0 0 0 0 0 0 0 0 0 0 0 0 0 0.05 0"/>
<feBlend mode="normal" in2="BackgroundImageFix" result="effect1_dropShadow_2485_12525"/>
<feBlend mode="normal" in="SourceGraphic" in2="effect1_dropShadow_2485_12525" result="shape"/>
</filter>
<linearGradient id="paint0_linear_2485_12525" x1="-2.96154" y1="-8.03846" x2="84" y2="76" gradientUnits="userSpaceOnUse">
<stop stop-color="#FFE870"/>
<stop offset="0.239583" stop-color="#FF80C5"/>
<stop offset="0.65625" stop-color="#6442FF"/>
<stop offset="1" stop-color="#58ABF1"/>
</linearGradient>
<linearGradient id="paint1_linear_2485_12525" x1="24.2853" y1="19.6506" x2="60.4619" y2="58.2913" gradientUnits="userSpaceOnUse">
<stop stop-color="#FFE870"/>
<stop offset="0.239583" stop-color="#FF80C5"/>
<stop offset="0.65625" stop-color="#6442FF"/>
<stop offset="1" stop-color="#58ABF1"/>
</linearGradient>
</defs>
</svg>
