<svg width="85" height="97" viewBox="0 0 85 97" fill="none" xmlns="http://www.w3.org/2000/svg">
<rect opacity="0.2" x="8" width="76" height="76" rx="16" fill="url(#paint0_linear_3332_4234)"/>
<g filter="url(#filter0_d_3332_4234)">
<rect x="20" y="12" width="52" height="52" rx="8" fill="white"/>
<rect x="20.5789" y="12.5789" width="50.8421" height="50.8421" rx="7.42105" stroke="black" stroke-opacity="0.1" stroke-width="1.15789"/>
</g>
<path d="M32.6667 27.9999V51.3333H56V54.6666H31C30 54.6666 29.3334 53.9999 29.3334 52.9999V27.9999H32.6667ZM39.3334 21.3333H59.3334C61.1834 21.3333 62.6667 22.8333 62.6667 24.6666V44.6666C62.6667 46.5166 61.1834 47.9999 59.3334 47.9999H39.3334C37.5 47.9999 36 46.5166 36 44.6666V24.6666C36 22.8333 37.5 21.3333 39.3334 21.3333ZM53.1667 40.1666L52.5 35.8333L55.6667 32.6666L51.3334 31.9999L49.3334 27.9999L47.3334 31.9999L43 32.6666L46.1667 35.6666L45.3334 39.9999L49.3334 37.9999L53.1667 40.1666Z" fill="url(#paint1_linear_3332_4234)"/>
<defs>
<filter id="filter0_d_3332_4234" x="0.31579" y="12" width="84.4211" height="84.4211" filterUnits="userSpaceOnUse" color-interpolation-filters="sRGB">
<feFlood flood-opacity="0" result="BackgroundImageFix"/>
<feColorMatrix in="SourceAlpha" type="matrix" values="0 0 0 0 0 0 0 0 0 0 0 0 0 0 0 0 0 0 127 0" result="hardAlpha"/>
<feOffset dx="-3.47368" dy="16.2105"/>
<feGaussianBlur stdDeviation="8.10526"/>
<feComposite in2="hardAlpha" operator="out"/>
<feColorMatrix type="matrix" values="0 0 0 0 0 0 0 0 0 0 0 0 0 0 0 0 0 0 0.05 0"/>
<feBlend mode="normal" in2="BackgroundImageFix" result="effect1_dropShadow_3332_4234"/>
<feBlend mode="normal" in="SourceGraphic" in2="effect1_dropShadow_3332_4234" result="shape"/>
</filter>
<linearGradient id="paint0_linear_3332_4234" x1="-2.96154" y1="-8.03846" x2="84" y2="76" gradientUnits="userSpaceOnUse">
<stop stop-color="#FFE870"/>
<stop offset="0.239583" stop-color="#FF80C5"/>
<stop offset="0.65625" stop-color="#6442FF"/>
<stop offset="1" stop-color="#58ABF1"/>
</linearGradient>
<linearGradient id="paint1_linear_3332_4234" x1="24.5257" y1="17.8076" x2="62.6667" y2="54.6666" gradientUnits="userSpaceOnUse">
<stop stop-color="#FFE870"/>
<stop offset="0.239583" stop-color="#FF80C5"/>
<stop offset="0.65625" stop-color="#6442FF"/>
<stop offset="1" stop-color="#58ABF1"/>
</linearGradient>
</defs>
</svg>
