<svg width="50" height="49" viewBox="0 0 50 49" fill="none" xmlns="http://www.w3.org/2000/svg">
<g filter="url(#filter0_d_2492_5080)">
<rect x="13" width="28" height="28" rx="8.8421" fill="white"/>
<rect x="13.3684" y="0.368421" width="27.2632" height="27.2632" rx="8.47368" stroke="black" stroke-opacity="0.1" stroke-width="0.736842"/>
</g>
<path d="M36.1265 7.46829L36.1265 7.4683C36.3691 7.71098 36.4969 8.01314 36.4969 8.35589C36.4969 8.69864 36.3691 9.00081 36.1265 9.24349L24.8973 20.4727C24.7753 20.5946 24.6375 20.6961 24.4819 20.7584C24.3365 20.8166 24.1825 20.8431 24.0243 20.8431C23.8661 20.8431 23.7121 20.8166 23.5666 20.7584C23.411 20.6961 23.2733 20.5946 23.1513 20.4727L17.8721 15.1935C17.6264 14.9478 17.5017 14.6395 17.5017 14.2913C17.5017 13.9432 17.6264 13.6349 17.8721 13.3891L36.1265 7.46829ZM36.1265 7.46829C35.8838 7.22562 35.5816 7.09789 35.2389 7.09789C34.8961 7.09789 34.5939 7.22562 34.3513 7.4683L24.0243 17.7953L36.1265 7.46829Z" fill="#B5107F" stroke="#B5107F" stroke-width="0.736842"/>
<defs>
<filter id="filter0_d_2492_5080" x="0.473685" y="0" width="48.6316" height="48.6316" filterUnits="userSpaceOnUse" color-interpolation-filters="sRGB">
<feFlood flood-opacity="0" result="BackgroundImageFix"/>
<feColorMatrix in="SourceAlpha" type="matrix" values="0 0 0 0 0 0 0 0 0 0 0 0 0 0 0 0 0 0 127 0" result="hardAlpha"/>
<feOffset dx="-2.21053" dy="10.3158"/>
<feGaussianBlur stdDeviation="5.15789"/>
<feComposite in2="hardAlpha" operator="out"/>
<feColorMatrix type="matrix" values="0 0 0 0 0 0 0 0 0 0 0 0 0 0 0 0 0 0 0.05 0"/>
<feBlend mode="normal" in2="BackgroundImageFix" result="effect1_dropShadow_2492_5080"/>
<feBlend mode="normal" in="SourceGraphic" in2="effect1_dropShadow_2492_5080" result="shape"/>
</filter>
</defs>
</svg>
