<svg width="66" height="66" viewBox="0 0 66 66" fill="none" xmlns="http://www.w3.org/2000/svg">
<g filter="url(#filter0_d_2485_12449)">
<rect x="17" width="38" height="38" rx="12" fill="white"/>
<rect x="17.5" y="0.5" width="37" height="37" rx="11.5" stroke="black" stroke-opacity="0.1"/>
</g>
<g clip-path="url(#clip0_2485_12449)">
<path d="M35.5013 28.4604L34.1117 27.1954C29.1763 22.72 25.918 19.7683 25.918 16.1458C25.918 13.1942 28.2371 10.875 31.1888 10.875C32.8563 10.875 34.4567 11.6513 35.5013 12.8779C36.5459 11.6513 38.1463 10.875 39.8138 10.875C42.7655 10.875 45.0846 13.1942 45.0846 16.1458C45.0846 19.7683 41.8263 22.72 36.8909 27.205L35.5013 28.4604Z" fill="#CC2696"/>
</g>
<defs>
<filter id="filter0_d_2485_12449" x="0" y="0" width="66" height="66" filterUnits="userSpaceOnUse" color-interpolation-filters="sRGB">
<feFlood flood-opacity="0" result="BackgroundImageFix"/>
<feColorMatrix in="SourceAlpha" type="matrix" values="0 0 0 0 0 0 0 0 0 0 0 0 0 0 0 0 0 0 127 0" result="hardAlpha"/>
<feOffset dx="-3" dy="14"/>
<feGaussianBlur stdDeviation="7"/>
<feComposite in2="hardAlpha" operator="out"/>
<feColorMatrix type="matrix" values="0 0 0 0 0 0 0 0 0 0 0 0 0 0 0 0 0 0 0.05 0"/>
<feBlend mode="normal" in2="BackgroundImageFix" result="effect1_dropShadow_2485_12449"/>
<feBlend mode="normal" in="SourceGraphic" in2="effect1_dropShadow_2485_12449" result="shape"/>
</filter>
<clipPath id="clip0_2485_12449">
<rect width="23" height="23" fill="white" transform="translate(24 8)"/>
</clipPath>
</defs>
</svg>
