<svg width="24" height="24" viewBox="0 0 24 24" fill="none" xmlns="http://www.w3.org/2000/svg">
<g clip-path="url(#clip0_2485_12453)">
<path d="M19.1027 10.9464C19.2995 10.9464 19.4963 10.958 19.6815 10.9812V6.16497C19.6815 4.9725 18.709 4 17.5166 4H2.16497C0.9725 4 0 4.9725 0 6.16497V18.0434C0 19.2358 0.9725 20.2083 2.16497 20.2083H13.4298C12.9898 19.34 12.7351 18.356 12.7351 17.314C12.7351 13.7945 15.5832 10.9464 19.1027 10.9464ZM9.725 13.2619L2.31548 8.85092V6.31548H2.58176L9.73658 10.576L17.0651 6.31548H17.3661V8.81619L9.725 13.2619Z" fill="#B5107F"/>
<path d="M19.6815 13.262L18.0491 14.8944L19.8783 16.7352H15.0505V19.0507H19.8783L18.0491 20.8915L19.6815 22.5239L24.3124 17.8929L19.6815 13.262Z" fill="#B5107F"/>
</g>
<defs>
<clipPath id="clip0_2485_12453">
<rect width="24" height="24" fill="white"/>
</clipPath>
</defs>
</svg>
