<svg width="77" height="89" viewBox="0 0 77 89" fill="none" xmlns="http://www.w3.org/2000/svg">
<rect opacity="0.2" x="8" width="68" height="68" rx="16" fill="url(#paint0_linear_2483_11729)"/>
<g filter="url(#filter0_d_2483_11729)">
<rect x="20" y="12" width="44" height="44" rx="8" fill="white"/>
<rect x="20.5789" y="12.5789" width="42.8421" height="42.8421" rx="7.42105" stroke="black" stroke-opacity="0.1" stroke-width="1.15789"/>
</g>
<g clip-path="url(#clip0_2483_11729)">
<path d="M53.0833 19.75H30.9167C29.175 19.75 27.75 21.175 27.75 22.9167V45.0833C27.75 46.825 29.175 48.25 30.9167 48.25H53.0833C54.825 48.25 56.25 46.825 56.25 45.0833V22.9167C56.25 21.175 54.825 19.75 53.0833 19.75ZM37.25 41.9167H34.0833V30.8333H37.25V41.9167ZM43.5833 41.9167H40.4167V26.0833H43.5833V41.9167ZM49.9167 41.9167H46.75V35.5833H49.9167V41.9167Z" fill="url(#paint1_linear_2483_11729)"/>
</g>
<defs>
<filter id="filter0_d_2483_11729" x="0.31579" y="12" width="76.4211" height="76.4211" filterUnits="userSpaceOnUse" color-interpolation-filters="sRGB">
<feFlood flood-opacity="0" result="BackgroundImageFix"/>
<feColorMatrix in="SourceAlpha" type="matrix" values="0 0 0 0 0 0 0 0 0 0 0 0 0 0 0 0 0 0 127 0" result="hardAlpha"/>
<feOffset dx="-3.47368" dy="16.2105"/>
<feGaussianBlur stdDeviation="8.10526"/>
<feComposite in2="hardAlpha" operator="out"/>
<feColorMatrix type="matrix" values="0 0 0 0 0 0 0 0 0 0 0 0 0 0 0 0 0 0 0.05 0"/>
<feBlend mode="normal" in2="BackgroundImageFix" result="effect1_dropShadow_2483_11729"/>
<feBlend mode="normal" in="SourceGraphic" in2="effect1_dropShadow_2483_11729" result="shape"/>
</filter>
<linearGradient id="paint0_linear_2483_11729" x1="-1.80769" y1="-7.19231" x2="76" y2="68" gradientUnits="userSpaceOnUse">
<stop stop-color="#FFE870"/>
<stop offset="0.239583" stop-color="#FF80C5"/>
<stop offset="0.65625" stop-color="#6442FF"/>
<stop offset="1" stop-color="#58ABF1"/>
</linearGradient>
<linearGradient id="paint1_linear_2483_11729" x1="23.6394" y1="16.7356" x2="56.25" y2="48.25" gradientUnits="userSpaceOnUse">
<stop stop-color="#FFE870"/>
<stop offset="0.239583" stop-color="#FF80C5"/>
<stop offset="0.65625" stop-color="#6442FF"/>
<stop offset="1" stop-color="#58ABF1"/>
</linearGradient>
<clipPath id="clip0_2483_11729">
<rect width="38" height="38" fill="white" transform="translate(23 15)"/>
</clipPath>
</defs>
</svg>
